<svg version="1.1" xmlns="http://www.w3.org/2000/svg" viewBox="0 0 1117.8196452026289 345.5" width="1117.8196452026289" height="345.5">
  <!-- svg-source:excalidraw -->
  
  <defs>
    <style class="style-fonts">
      @font-face {
        font-family: "Virgil";
        src: url("https://excalidraw.com/Virgil.woff2");
      }
      @font-face {
        font-family: "Cascadia";
        src: url("https://excalidraw.com/Cascadia.woff2");
      }
    </style>
    
  </defs>
  <rect x="0" y="0" width="1117.8196452026289" height="345.5" fill="#ffffff"></rect><g stroke-linecap="round" transform="translate(10 10) rotate(0 105 162.5)"><path d="M7.86 8.16 C7.86 8.16, 7.86 8.16, 7.86 8.16 M7.86 8.16 C7.86 8.16, 7.86 8.16, 7.86 8.16 M3.66 19.09 C5.89 13.27, 13.13 8.71, 18.1 2.48 M3.66 19.09 C10.29 11.7, 14.17 5.98, 18.1 2.48 M2.75 26.24 C12.08 16.75, 20.44 7.91, 24.4 1.33 M2.75 26.24 C9.72 17.05, 19.52 7.05, 24.4 1.33 M2.48 32.64 C12.19 20.77, 24.41 6.78, 30.7 0.18 M2.48 32.64 C10.66 23, 18.7 13.48, 30.7 0.18 M2.88 38.28 C11.85 30.81, 20.66 19.22, 34.37 2.05 M2.88 38.28 C9.08 30.49, 17.26 23.45, 34.37 2.05 M2.62 44.68 C15.15 30.86, 25.56 17.29, 39.36 2.41 M2.62 44.68 C10.34 35.48, 19.39 24.42, 39.36 2.41 M2.36 51.07 C20.4 34.02, 36.71 13.69, 45 2.02 M2.36 51.07 C10.65 39.71, 19.19 29.95, 45 2.02 M2.75 56.72 C17.62 39.18, 32.09 22.12, 49.99 2.38 M2.75 56.72 C13.31 45.2, 22.21 34.54, 49.99 2.38 M2.49 63.11 C23.73 39.9, 44.55 16.56, 55.63 1.98 M2.49 63.11 C17.16 46.45, 31.47 28.9, 55.63 1.98 M2.88 68.76 C17.81 51.71, 35.14 30.88, 60.62 2.34 M2.88 68.76 C20.32 50.51, 35.24 32.22, 60.62 2.34 M2.62 75.16 C21.46 54.02, 35.46 38.56, 66.26 1.95 M2.62 75.16 C18.84 58.53, 32.15 41.73, 66.26 1.95 M2.36 81.55 C18.77 60.2, 34.81 42.31, 71.25 2.31 M2.36 81.55 C30.6 51.23, 57.64 19.33, 71.25 2.31 M2.76 87.2 C21.02 65.03, 41.03 41.86, 76.89 1.91 M2.76 87.2 C30.59 53.79, 59 22.51, 76.89 1.91 M2.49 93.59 C23.06 69.25, 46.75 42.68, 81.88 2.27 M2.49 93.59 C19.21 73.49, 36.22 52.1, 81.88 2.27 M2.23 99.99 C32.2 67.87, 61.2 31.11, 87.52 1.88 M2.23 99.99 C30.38 67.71, 58.86 35.85, 87.52 1.88 M2.63 105.64 C23.31 80.58, 43.03 60.29, 92.51 2.24 M2.63 105.64 C32.12 70.81, 59.98 38.8, 92.51 2.24 M2.37 112.03 C40.6 69.45, 75.76 28.65, 97.49 2.6 M2.37 112.03 C39.76 67.45, 77.55 25.22, 97.49 2.6 M2.76 117.68 C40.11 70.94, 81.92 25.94, 103.14 2.21 M2.76 117.68 C37.78 74.95, 73.38 34.99, 103.14 2.21 M2.5 124.07 C38.33 83.49, 73.24 40.48, 108.12 2.57 M2.5 124.07 C43.91 76.13, 86.06 28.28, 108.12 2.57 M2.24 130.47 C24.4 106.31, 45.51 79.14, 113.77 2.17 M2.24 130.47 C32.49 94.6, 63.99 57.03, 113.77 2.17 M2.63 136.11 C34.98 97.75, 68.8 60.05, 118.76 2.53 M2.63 136.11 C29.66 107.33, 53.83 77.95, 118.76 2.53 M2.37 142.51 C46.84 92.1, 92.53 37.93, 124.4 2.14 M2.37 142.51 C47.93 92.48, 93 39.93, 124.4 2.14 M2.11 148.91 C49.08 97.98, 94.42 44.64, 129.39 2.5 M2.11 148.91 C40.48 105.75, 78.93 63.24, 129.39 2.5 M2.5 154.55 C38.84 110.58, 77.04 67.78, 135.03 2.1 M2.5 154.55 C50.95 97.7, 100.13 41.83, 135.03 2.1 M2.24 160.95 C35.58 119.93, 71.87 81.12, 140.02 2.46 M2.24 160.95 C49.26 109.6, 93.74 56, 140.02 2.46 M2.64 166.59 C44.67 119.46, 85.9 70.75, 145.66 2.07 M2.64 166.59 C52.08 108.94, 99.87 52.9, 145.66 2.07 M2.38 172.99 C47.21 116.42, 95.39 62.43, 150.65 2.43 M2.38 172.99 C51.07 113.43, 102.56 56.29, 150.65 2.43 M2.11 179.39 C62.87 111.92, 119.59 44.73, 155.63 2.79 M2.11 179.39 C41.81 134.47, 80.8 88.01, 155.63 2.79 M2.51 185.03 C36.73 142.94, 74.3 101.88, 161.28 2.39 M2.51 185.03 C39.23 143.67, 74.42 102.97, 161.28 2.39 M2.25 191.43 C51.41 137.4, 96.39 82.01, 166.26 2.75 M2.25 191.43 C62.91 120.61, 124.27 51.96, 166.26 2.75 M2.64 197.07 C58.21 131.6, 116.59 65.78, 171.91 2.36 M2.64 197.07 C36.25 156.81, 71.82 116.3, 171.91 2.36 M2.38 203.47 C41.81 162.28, 76.5 118.87, 176.89 2.72 M2.38 203.47 C43.73 155.39, 86.24 107.46, 176.89 2.72 M2.12 209.87 C54.73 146.98, 109.24 83.06, 182.54 2.32 M2.12 209.87 C69.94 129.82, 140.3 50.32, 182.54 2.32 M2.51 215.51 C53.43 157.88, 101.83 100.66, 187.52 2.68 M2.51 215.51 C63.75 143.13, 125.2 71.58, 187.52 2.68 M2.25 221.91 C60.86 156.88, 117.04 90.46, 191.85 3.8 M2.25 221.91 C76.08 137.9, 148.26 54.81, 191.85 3.8 M1.99 228.31 C57.13 167.86, 111.46 104.55, 196.18 4.91 M1.99 228.31 C44.43 181.56, 84.59 133.53, 196.18 4.91 M2.39 233.95 C77.92 142.56, 158.57 52.74, 199.86 6.78 M2.39 233.95 C61.97 166.97, 121.1 98.23, 199.86 6.78 M2.12 240.35 C73 159.4, 141.48 78.67, 202.88 9.41 M2.12 240.35 C66.35 165.62, 133.2 89.77, 202.88 9.41 M2.52 245.99 C72.61 162.77, 142.91 81.43, 205.9 12.03 M2.52 245.99 C77.01 162.22, 149.12 78.54, 205.9 12.03 M2.26 252.39 C64.6 181.04, 127.95 110.38, 208.26 15.41 M2.26 252.39 C54.07 194.96, 105.17 135.92, 208.26 15.41 M2 258.79 C47.1 204.6, 95.8 152.93, 209.97 19.54 M2 258.79 C55.19 197.22, 108.29 134.59, 209.97 19.54 M2.39 264.43 C53.61 206.98, 103.51 151.04, 210.36 25.19 M2.39 264.43 C49.53 208.39, 97.97 151.9, 210.36 25.19 M2.13 270.83 C81.69 176, 162.39 84.73, 211.41 30.08 M2.13 270.83 C46.95 218.68, 92.48 166.09, 211.41 30.08 M1.87 277.23 C84.26 183.74, 165.39 90.11, 213.12 34.21 M1.87 277.23 C53.29 218.68, 103.96 158.24, 213.12 34.21 M2.26 282.87 C63.09 209.99, 125.17 139.19, 212.86 40.61 M2.26 282.87 C76.81 198.11, 149.25 114.97, 212.86 40.61 M2 289.27 C54.64 228.24, 108.73 168.61, 212.6 47.01 M2 289.27 C74.05 206.08, 145.93 122.13, 212.6 47.01 M2.4 294.91 C68.18 218.64, 134.66 140.54, 212.99 52.65 M2.4 294.91 C54.52 234.19, 107.25 173.36, 212.99 52.65 M2.79 300.55 C53.85 240.89, 106.18 181.74, 212.73 59.05 M2.79 300.55 C64.68 232.22, 124.17 162.41, 212.73 59.05 M2.53 306.95 C69.05 230.8, 135.51 152.09, 213.12 64.69 M2.53 306.95 C56.4 246.17, 108.24 186.58, 213.12 64.69 M4.24 311.08 C64.98 239.38, 128.67 167.68, 212.86 71.09 M4.24 311.08 C77 230.73, 147.62 148.75, 212.86 71.09 M6.6 314.46 C61.96 254.23, 115.89 190.97, 212.6 77.48 M6.6 314.46 C76.96 231.41, 148.49 148.74, 212.6 77.48 M9.62 317.09 C52.03 270.29, 93.08 220.39, 213 83.13 M9.62 317.09 C61.59 255.13, 114.35 194.88, 213 83.13 M12.64 319.71 C53.92 270.4, 95.57 220.89, 212.73 89.53 M12.64 319.71 C64.58 259.15, 115.82 199.86, 212.73 89.53 M15 323.09 C71.18 256.39, 130.24 192.52, 213.13 95.17 M15 323.09 C77.51 252.17, 139.35 180.47, 213.13 95.17 M19.33 324.21 C83.28 249.12, 148.47 174.16, 212.87 101.57 M19.33 324.21 C94.39 237.94, 169.62 150.28, 212.87 101.57 M24.32 324.57 C93.01 244.62, 162.53 165.03, 212.61 107.96 M24.32 324.57 C72.63 269.97, 120.81 215.06, 212.61 107.96 M28.65 325.68 C82.36 264.3, 135 200.67, 213 113.61 M28.65 325.68 C75.96 271.1, 122.8 215.92, 213 113.61 M33.63 326.04 C94.36 254.75, 156.5 184.66, 212.74 120.01 M33.63 326.04 C94.32 253.81, 156.94 182.54, 212.74 120.01 M38.62 326.4 C80.8 275.62, 125.34 226.71, 213.13 125.65 M38.62 326.4 C85.49 271.84, 132.55 218.64, 213.13 125.65 M44.26 326.01 C84.99 279.06, 124.1 234.87, 212.87 132.05 M44.26 326.01 C104.4 256.18, 165.23 186.43, 212.87 132.05 M49.25 326.37 C89.73 279.19, 132.54 229.38, 212.61 138.44 M49.25 326.37 C104.45 261.65, 160.89 197.58, 212.61 138.44 M54.89 325.97 C110.67 258.21, 171.14 191.55, 213 144.09 M54.89 325.97 C109.76 264.74, 161.63 203.35, 213 144.09 M59.88 326.33 C108.7 271.53, 152.92 218.82, 212.74 150.48 M59.88 326.33 C103.58 279.85, 144.7 231.89, 212.74 150.48 M65.52 325.94 C114.4 268.03, 167.41 210.11, 213.14 156.13 M65.52 325.94 C103.43 282.77, 140.38 241.17, 213.14 156.13 M70.51 326.3 C105.3 286.4, 141.51 248.09, 212.88 162.53 M70.51 326.3 C124.14 264.51, 179.74 201.25, 212.88 162.53 M76.15 325.9 C110.92 281.01, 148.52 239.01, 212.61 168.92 M76.15 325.9 C127.61 269.62, 177.62 212.96, 212.61 168.92 M81.14 326.26 C109.26 292.02, 140.3 259.07, 213.01 174.57 M81.14 326.26 C118.25 283.83, 155.72 239.73, 213.01 174.57 M86.13 326.62 C135.94 270.48, 183.26 213.82, 212.75 180.96 M86.13 326.62 C116.23 292.65, 145.72 258.35, 212.75 180.96 M91.77 326.23 C133.11 280.91, 171.82 232.68, 213.14 186.61 M91.77 326.23 C124.73 287.4, 160.8 246.15, 213.14 186.61 M96.76 326.59 C141.72 276.09, 186.08 225.87, 212.88 193 M96.76 326.59 C133.78 284.25, 171.02 242.63, 212.88 193 M102.4 326.19 C137.52 285.95, 175.59 243.03, 212.62 199.4 M102.4 326.19 C145.83 275.87, 190.75 226.41, 212.62 199.4 M107.39 326.55 C137.53 293.01, 168.45 259.49, 213.01 205.05 M107.39 326.55 C147.19 281.31, 188.09 233.95, 213.01 205.05 M113.03 326.16 C137.59 294.08, 166.42 264.05, 212.75 211.44 M113.03 326.16 C146.02 288.68, 179.59 251.09, 212.75 211.44 M118.02 326.52 C154.37 283.36, 191.32 241.91, 213.15 217.09 M118.02 326.52 C145.1 295.1, 172.54 264.49, 213.15 217.09 M123.66 326.12 C150.96 292.83, 179.03 263.77, 212.89 223.48 M123.66 326.12 C151.41 296.44, 177.16 265.4, 212.89 223.48 M128.65 326.49 C157.99 293.2, 185.74 259.86, 212.62 229.88 M128.65 326.49 C162.55 289.56, 194.24 252.06, 212.62 229.88 M134.29 326.09 C160.14 295.84, 186.75 267.14, 213.02 235.53 M134.29 326.09 C151.55 306.95, 166.51 288.88, 213.02 235.53 M139.28 326.45 C156.62 305.89, 175.25 287.24, 212.76 241.92 M139.28 326.45 C164.15 296.64, 190.39 266.64, 212.76 241.92 M144.92 326.06 C165.23 304.64, 185 280.64, 213.15 247.57 M144.92 326.06 C164.18 305.68, 181.04 284.9, 213.15 247.57 M149.91 326.42 C170.18 306.94, 187.73 287.33, 212.89 253.96 M149.91 326.42 C171.35 302.24, 194.27 276.2, 212.89 253.96 M155.55 326.02 C169.71 309.37, 187.72 291.12, 212.63 260.36 M155.55 326.02 C178.4 300.05, 201.09 273.15, 212.63 260.36 M160.54 326.38 C171.49 312.45, 181.01 302.25, 213.02 266 M160.54 326.38 C172.21 314.49, 183.42 300.52, 213.02 266 M166.18 325.99 C184.59 305.28, 202.81 283.74, 212.76 272.4 M166.18 325.99 C183.83 303.51, 203.3 283.67, 212.76 272.4 M171.17 326.35 C181.24 316.75, 189.78 306.37, 213.16 278.05 M171.17 326.35 C184.51 310.49, 197.97 293.57, 213.16 278.05 M176.81 325.95 C188.19 309.64, 204.02 295, 212.9 284.44 M176.81 325.95 C191.3 309.09, 203.76 293.06, 212.9 284.44 M180.49 327.82 C184.99 320.82, 194.85 314.26, 210.67 293.11 M180.49 327.82 C190.12 316.18, 202.45 303.45, 210.67 293.11 M186.79 326.67 C195.36 320.06, 199.67 311.75, 209.09 301.01 M186.79 326.67 C195.32 318.11, 203.9 307.81, 209.09 301.01 M193.74 324.77 C199.29 320.69, 201.48 317.32, 208.83 307.41 M193.74 324.77 C196.62 320.21, 200.11 316.8, 208.83 307.41" stroke="#a5d8ff" stroke-width="0.5" fill="none"></path><path d="M32 0 M32 0 C80.05 0.9, 128.67 2.31, 178 0 M32 0 C72.93 1.33, 113 1.15, 178 0 M178 0 C197.34 1.11, 208.57 9.6, 210 32 M178 0 C199.14 1.7, 212.28 9.5, 210 32 M210 32 C211.14 101.11, 210.1 172.27, 210 293 M210 32 C211.13 103.88, 211.13 174.94, 210 293 M210 293 C208.47 313.67, 198.84 325.41, 178 325 M210 293 C210.16 314.46, 199.26 324.24, 178 325 M178 325 C129.23 328.09, 83.03 326.61, 32 325 M178 325 C130.02 324.65, 82.03 323.62, 32 325 M32 325 C10.95 324.88, -0.74 316, 0 293 M32 325 C12.81 326.01, -1.13 315.52, 0 293 M0 293 C-0.34 216.75, -1.36 140.67, 0 32 M0 293 C1.39 206.83, 1.26 119.18, 0 32 M0 32 C1.43 9.71, 10.87 0.65, 32 0 M0 32 C-0.31 9.92, 8.75 1.46, 32 0" stroke="#1e1e1e" stroke-width="1" fill="none"></path></g><g transform="translate(20.9400634765625 122.5) rotate(0 94.0599365234375 50)"><text x="94.0599365234375" y="0" font-family="Virgil, Segoe UI Emoji" font-size="20px" fill="#1e1e1e" text-anchor="middle" style="white-space: pre;" direction="ltr" dominant-baseline="text-before-edge">Source Systems </text><text x="94.0599365234375" y="25" font-family="Virgil, Segoe UI Emoji" font-size="20px" fill="#1e1e1e" text-anchor="middle" style="white-space: pre;" direction="ltr" dominant-baseline="text-before-edge">such as REST </text><text x="94.0599365234375" y="50" font-family="Virgil, Segoe UI Emoji" font-size="20px" fill="#1e1e1e" text-anchor="middle" style="white-space: pre;" direction="ltr" dominant-baseline="text-before-edge">APIs, Databases, </text><text x="94.0599365234375" y="75" font-family="Virgil, Segoe UI Emoji" font-size="20px" fill="#1e1e1e" text-anchor="middle" style="white-space: pre;" direction="ltr" dominant-baseline="text-before-edge">Files, etc.</text></g><g stroke-linecap="round" transform="translate(282 92) rotate(0 94.5 76)"><path d="M7.86 8.16 C7.86 8.16, 7.86 8.16, 7.86 8.16 M7.86 8.16 C7.86 8.16, 7.86 8.16, 7.86 8.16 M3.66 19.09 C10.25 12.27, 12.05 9.43, 18.1 2.48 M3.66 19.09 C7.77 13.57, 14.61 6.8, 18.1 2.48 M2.75 26.24 C8.31 19.71, 14.47 14.36, 24.4 1.33 M2.75 26.24 C9.23 17.03, 17.73 9.88, 24.4 1.33 M2.48 32.64 C12.86 20.9, 20.2 13.12, 30.7 0.18 M2.48 32.64 C11.84 21.24, 21.36 10.1, 30.7 0.18 M2.88 38.28 C13.55 27.91, 22.61 12.81, 34.37 2.05 M2.88 38.28 C15.09 23.18, 27.51 10.88, 34.37 2.05 M2.62 44.68 C12.58 31.62, 24.35 21.92, 39.36 2.41 M2.62 44.68 C9.63 34.96, 17.52 27.85, 39.36 2.41 M2.36 51.07 C15.45 34.85, 32.7 18.78, 45 2.02 M2.36 51.07 C12.01 40.6, 20 31.94, 45 2.02 M2.75 56.72 C19.94 37.03, 40.43 14.09, 49.99 2.38 M2.75 56.72 C18.48 39.02, 32.95 21.41, 49.99 2.38 M2.49 63.11 C13.95 50.12, 27.97 35.15, 55.63 1.98 M2.49 63.11 C22.01 40.38, 43.81 15.91, 55.63 1.98 M2.23 69.51 C23.85 44.53, 41.39 22.61, 60.62 2.34 M2.23 69.51 C23.02 46.9, 42.79 23.57, 60.62 2.34 M2.62 75.16 C20.93 50.76, 43.97 28.75, 66.26 1.95 M2.62 75.16 C18.89 56.43, 35.47 38.79, 66.26 1.95 M2.36 81.55 C20.4 62.79, 33.62 45.96, 71.25 2.31 M2.36 81.55 C20.38 61.32, 36.93 41.14, 71.25 2.31 M2.1 87.95 C21.61 70.09, 34.71 47.48, 76.89 1.91 M2.1 87.95 C17.95 70.41, 33.58 51.8, 76.89 1.91 M2.49 93.59 C20.07 75.98, 33.25 57.08, 81.88 2.27 M2.49 93.59 C27.03 67.3, 49.63 40.75, 81.88 2.27 M2.23 99.99 C21.94 76.08, 45.44 48.95, 87.52 1.88 M2.23 99.99 C35.03 63.34, 66.99 25.05, 87.52 1.88 M1.97 106.39 C30.88 74.03, 59.62 41.29, 92.51 2.24 M1.97 106.39 C22.51 81.21, 44.3 57.39, 92.51 2.24 M2.37 112.03 C27.64 85.5, 50.98 58.92, 98.15 1.85 M2.37 112.03 C37.98 71.28, 71.89 30.81, 98.15 1.85 M0.14 120.69 C35.91 83.02, 67.7 43.71, 103.14 2.21 M0.14 120.69 C36.45 77.36, 73.05 35.3, 103.14 2.21 M1.19 125.58 C29.01 92.26, 58.85 56.54, 108.78 1.81 M1.19 125.58 C35.19 87.53, 68.15 49.87, 108.78 1.81 M2.24 130.47 C36.55 90.34, 71.86 46.39, 113.77 2.17 M2.24 130.47 C25.56 103.24, 47.87 77.49, 113.77 2.17 M3.29 135.36 C45.91 87.16, 89.44 39.85, 119.41 1.78 M3.29 135.36 C48.83 83.38, 94.02 32.15, 119.41 1.78 M5.65 138.74 C35.51 107.66, 65.22 71.32, 124.4 2.14 M5.65 138.74 C37.42 104.47, 68.32 68.16, 124.4 2.14 M8.01 142.12 C35.16 110.68, 60.31 81.75, 130.04 1.74 M8.01 142.12 C50.04 93.08, 91.77 45.53, 130.04 1.74 M10.38 145.5 C53.3 97.08, 98.6 45.58, 135.03 2.1 M10.38 145.5 C42.18 107.8, 75.72 70.69, 135.03 2.1 M13.4 148.12 C46.78 108.39, 81.55 72.36, 140.67 1.71 M13.4 148.12 C62.22 93.44, 108.83 38.92, 140.67 1.71 M17.07 149.99 C43.48 118.41, 70.61 88.01, 145.66 2.07 M17.07 149.99 C53.2 107.51, 93.28 62.41, 145.66 2.07 M20.75 151.86 C70.09 90.75, 123.72 34.34, 150.65 2.43 M20.75 151.86 C72.55 92.39, 123.99 32.3, 150.65 2.43 M25.08 152.98 C61.42 111.8, 98.14 68.59, 157.6 0.52 M25.08 152.98 C68.98 105.89, 110.19 55.8, 157.6 0.52 M30.06 153.34 C60.65 117, 91.26 81.64, 162.59 0.88 M30.06 153.34 C61.6 119.32, 92.5 83.93, 162.59 0.88 M34.39 154.45 C76.01 106.59, 117.94 60.84, 166.92 2 M34.39 154.45 C87.68 92.91, 139.79 33.65, 166.92 2 M40.04 154.06 C78 109.71, 116.2 66.36, 171.91 2.36 M40.04 154.06 C89.22 94.2, 141.39 36.38, 171.91 2.36 M45.02 154.42 C97.67 99.24, 147.26 38.41, 174.92 4.98 M45.02 154.42 C81.46 111.52, 118.19 68.7, 174.92 4.98 M50.67 154.02 C99.89 99.3, 146.3 44.93, 178.6 6.85 M50.67 154.02 C87.78 113.28, 122.61 70.59, 178.6 6.85 M55.65 154.38 C86.98 119.19, 119.38 81.65, 182.27 8.72 M55.65 154.38 C90.24 115.55, 123.49 78.69, 182.27 8.72 M61.3 153.99 C110.01 95.98, 157.19 41.02, 183.98 12.86 M61.3 153.99 C87.89 122.14, 115.49 90.32, 183.98 12.86 M66.28 154.35 C110.23 101.75, 157.53 48.47, 186.34 16.23 M66.28 154.35 C98.6 114.93, 132.84 75.96, 186.34 16.23 M71.93 153.95 C113.5 104.82, 155.42 58.06, 188.71 19.61 M71.93 153.95 C98.82 122.45, 127.12 89.5, 188.71 19.61 M76.91 154.31 C114.82 114.72, 150.3 73.58, 189.76 24.5 M76.91 154.31 C99.42 127.8, 124.11 100, 189.76 24.5 M82.56 153.92 C126.01 103.77, 163.82 56.96, 190.15 30.14 M82.56 153.92 C107.21 127.22, 131.4 99.54, 190.15 30.14 M87.54 154.28 C122.61 117.51, 157.84 77.4, 191.86 34.28 M87.54 154.28 C109.4 128.9, 131.68 104.96, 191.86 34.28 M93.19 153.88 C119.48 120.77, 146.4 88.42, 191.6 40.68 M93.19 153.88 C113.84 130.36, 134.33 106.76, 191.6 40.68 M98.18 154.24 C134.82 114.25, 170.42 71.91, 191.99 46.32 M98.18 154.24 C131.41 117.37, 164.87 78.96, 191.99 46.32 M103.16 154.6 C134.09 119.26, 165.42 81.15, 191.73 52.72 M103.16 154.6 C129.36 122.75, 155.22 93.81, 191.73 52.72 M108.81 154.21 C137.35 123.38, 164.52 90.83, 191.47 59.12 M108.81 154.21 C141.65 116.26, 174.52 79.98, 191.47 59.12 M113.79 154.57 C131.69 134.44, 149.87 112.59, 191.86 64.76 M113.79 154.57 C137.55 126.5, 160.51 100.84, 191.86 64.76 M119.44 154.17 C142.87 124.39, 167.17 96.97, 191.6 71.16 M119.44 154.17 C149.2 121.6, 178.52 88.02, 191.6 71.16 M124.42 154.53 C148.58 122.72, 176.07 92.96, 191.34 77.55 M124.42 154.53 C148.04 128.46, 172.43 100.59, 191.34 77.55 M130.07 154.14 C146 136.09, 165.28 114.49, 191.73 83.2 M130.07 154.14 C151.03 130.17, 172.94 106.94, 191.73 83.2 M135.05 154.5 C150.44 136.26, 166.14 116.4, 191.47 89.59 M135.05 154.5 C148.86 137.91, 162.31 122.71, 191.47 89.59 M140.7 154.1 C155.81 137.92, 169.46 119.67, 191.21 95.99 M140.7 154.1 C155.34 139.2, 167.81 123.34, 191.21 95.99 M145.68 154.47 C165.1 133.13, 183.23 112.77, 191.61 101.64 M145.68 154.47 C158.92 138.34, 172.53 122.38, 191.61 101.64 M151.33 154.07 C161.09 143.15, 171.68 131.79, 191.35 108.03 M151.33 154.07 C165.35 138.45, 180.02 122.25, 191.35 108.03 M157.62 152.92 C169.74 139.54, 182.02 126.04, 191.08 114.43 M157.62 152.92 C169.43 140.66, 180.41 126.25, 191.08 114.43 M163.92 151.77 C171.43 141.38, 182.33 130.81, 191.48 120.07 M163.92 151.77 C170.78 143.41, 178.15 134.65, 191.48 120.07 M170.22 150.62 C173.34 146.07, 179.07 141.89, 189.25 128.74 M170.22 150.62 C175.8 144.56, 180.89 138.65, 189.25 128.74" stroke="#e9ecef" stroke-width="0.5" fill="none"></path><path d="M32 0 M32 0 C72.61 1.61, 113.11 -1.31, 157 0 M32 0 C77.48 -0.69, 122.88 -1.07, 157 0 M157 0 C177.76 1.44, 187.17 11.99, 189 32 M157 0 C179.18 1.87, 186.84 10.54, 189 32 M189 32 C188.12 63.13, 190.91 95.08, 189 120 M189 32 C188.02 51.56, 189.41 69.27, 189 120 M189 120 C187.1 142.62, 177.79 150.05, 157 152 M189 120 C187.62 142.77, 180.36 151.79, 157 152 M157 152 C109.39 151.02, 59.89 154.24, 32 152 M157 152 C114.08 153.31, 71.38 152.69, 32 152 M32 152 C12.54 150.78, -1.94 141.61, 0 120 M32 152 C9.84 151.24, 2.06 141.67, 0 120 M0 120 C-0.98 87.77, 0.73 53.54, 0 32 M0 120 C-1.62 95.13, -1.57 71.59, 0 32 M0 32 C1.31 8.71, 8.85 0.47, 32 0 M0 32 C0 11.53, 12.57 -1.67, 32 0" stroke="#1e1e1e" stroke-width="1" fill="none"></path></g><g transform="translate(300.24007415771484 155.5) rotate(0 76.25992584228516 12.5)"><text x="76.25992584228516" y="0" font-family="Virgil, Segoe UI Emoji" font-size="20px" fill="#1e1e1e" text-anchor="middle" style="white-space: pre;" direction="ltr" dominant-baseline="text-before-edge">Ingestion Tools</text></g><g stroke-linecap="round" transform="translate(539 10.5) rotate(0 89 162.5)"><path d="M7.86 8.16 C7.86 8.16, 7.86 8.16, 7.86 8.16 M7.86 8.16 C7.86 8.16, 7.86 8.16, 7.86 8.16 M3.66 19.09 C6.55 15.67, 13.53 7.54, 18.1 2.48 M3.66 19.09 C8.26 14.84, 12.17 10.33, 18.1 2.48 M2.75 26.24 C10.95 19.54, 15.75 8.43, 24.4 1.33 M2.75 26.24 C9.65 18.01, 14.58 11.23, 24.4 1.33 M2.48 32.64 C12.6 21.66, 17.93 14.61, 30.7 0.18 M2.48 32.64 C10.74 23.61, 19.61 12.35, 30.7 0.18 M2.88 38.28 C15.28 23.52, 28.67 8.23, 34.37 2.05 M2.88 38.28 C10.35 29.51, 16.59 22.69, 34.37 2.05 M2.62 44.68 C12.34 34.85, 21.79 21.82, 39.36 2.41 M2.62 44.68 C15.56 31.41, 27.99 15.84, 39.36 2.41 M2.36 51.07 C15.55 34.74, 26.41 21.3, 45 2.02 M2.36 51.07 C17.61 33.81, 31.35 18.58, 45 2.02 M2.75 56.72 C14.55 44.1, 24.48 35.19, 49.99 2.38 M2.75 56.72 C18.68 40.22, 34.91 21.08, 49.99 2.38 M2.49 63.11 C19.94 40.74, 38.84 20.19, 55.63 1.98 M2.49 63.11 C22.34 39.96, 41.42 17.79, 55.63 1.98 M2.88 68.76 C14.56 52.06, 27.49 38.42, 60.62 2.34 M2.88 68.76 C21.49 47.23, 40.82 23.98, 60.62 2.34 M2.62 75.16 C20.49 56.56, 35.98 35.59, 66.26 1.95 M2.62 75.16 C21.99 54.16, 41.43 31.69, 66.26 1.95 M2.36 81.55 C27.21 54.79, 50.66 25.99, 71.25 2.31 M2.36 81.55 C24.04 56.95, 47.36 31.72, 71.25 2.31 M2.76 87.2 C28.25 60.65, 53.77 30.69, 76.89 1.91 M2.76 87.2 C21.46 64.16, 39.18 44.31, 76.89 1.91 M2.49 93.59 C24.93 66.85, 51.63 38.23, 81.88 2.27 M2.49 93.59 C29.15 62.59, 56.57 29.76, 81.88 2.27 M2.23 99.99 C25.74 68.97, 52.4 42.11, 86.86 2.63 M2.23 99.99 C22.78 76.29, 41.83 52.63, 86.86 2.63 M2.63 105.64 C27.98 78.78, 53.25 49.03, 92.51 2.24 M2.63 105.64 C35.43 67.48, 68.52 30.27, 92.51 2.24 M2.37 112.03 C25.71 84.11, 52.89 55.64, 97.49 2.6 M2.37 112.03 C38.8 70.77, 73.27 32.08, 97.49 2.6 M2.76 117.68 C42.84 72.54, 83.41 25.07, 103.14 2.21 M2.76 117.68 C28.72 88.66, 54.59 58.84, 103.14 2.21 M2.5 124.07 C39.81 80.51, 76.44 37.71, 108.12 2.57 M2.5 124.07 C29.28 92.89, 54.19 62.5, 108.12 2.57 M2.24 130.47 C33.88 94.93, 65.43 59.95, 113.77 2.17 M2.24 130.47 C41.18 83.84, 82.34 36.4, 113.77 2.17 M2.63 136.11 C29.92 105.04, 59.29 69.99, 118.76 2.53 M2.63 136.11 C26.85 108.38, 49.1 81.5, 118.76 2.53 M2.37 142.51 C29.98 113.84, 55.32 81.87, 124.4 2.14 M2.37 142.51 C46.19 91.74, 90.01 42, 124.4 2.14 M2.11 148.91 C40.7 104.61, 79.22 60.3, 129.39 2.5 M2.11 148.91 C31.19 114.62, 60.76 80.84, 129.39 2.5 M2.5 154.55 C37.37 114.76, 72.59 74.39, 135.03 2.1 M2.5 154.55 C55.24 92.97, 108.34 32.29, 135.03 2.1 M2.24 160.95 C55.53 100.49, 110.71 36.88, 140.02 2.46 M2.24 160.95 C35.41 122.06, 69.56 83.16, 140.02 2.46 M2.64 166.59 C45.32 119.67, 86.3 69.58, 145 2.82 M2.64 166.59 C51.18 110.3, 99.19 55.86, 145 2.82 M2.38 172.99 C42.25 128.16, 85.02 80.52, 150.65 2.43 M2.38 172.99 C39.94 130.59, 78.88 87.12, 150.65 2.43 M2.11 179.39 C56.52 117.52, 110.03 55.87, 155.63 2.79 M2.11 179.39 C56.39 118.69, 110.38 57.02, 155.63 2.79 M2.51 185.03 C39.59 142.75, 73.76 101.37, 160.62 3.15 M2.51 185.03 C63.05 115.82, 122.14 47.17, 160.62 3.15 M2.25 191.43 C57.63 130.92, 109.55 68.66, 164.29 5.02 M2.25 191.43 C47.91 138.31, 93.16 86.76, 164.29 5.02 M2.64 197.07 C67.38 123, 132.82 47.91, 167.97 6.89 M2.64 197.07 C37.21 155.91, 72.29 115.47, 167.97 6.89 M2.38 203.47 C43.78 153.56, 88.26 103.23, 170.99 9.51 M2.38 203.47 C53.29 144.77, 103.94 86.31, 170.99 9.51 M2.12 209.87 C44.93 160.03, 88.39 110.78, 173.35 12.89 M2.12 209.87 C51.08 153.86, 99.89 97.38, 173.35 12.89 M2.51 215.51 C44.2 168.74, 85.54 120.1, 175.71 16.27 M2.51 215.51 C50.37 160.52, 97.59 106.07, 175.71 16.27 M2.25 221.91 C65.38 146.67, 128.69 73.66, 178.08 19.65 M2.25 221.91 C73.33 141.55, 142.19 62.24, 178.08 19.65 M1.99 228.31 C53.13 169.05, 103.28 110.16, 178.47 25.29 M1.99 228.31 C66.03 156.02, 128.6 83.1, 178.47 25.29 M2.39 233.95 C70.92 154.96, 138.82 77.57, 179.52 30.18 M2.39 233.95 C48.67 179.19, 96.09 125.91, 179.52 30.18 M2.12 240.35 C61.14 172.34, 118.18 107.24, 181.23 34.31 M2.12 240.35 C39.06 196.12, 75.75 154.34, 181.23 34.31 M2.52 245.99 C53.34 188.39, 105.41 125.76, 180.97 40.71 M2.52 245.99 C54.99 188.03, 106.08 127.32, 180.97 40.71 M2.26 252.39 C66.73 179.98, 134.01 104.12, 180.71 47.11 M2.26 252.39 C72.13 171.12, 141.91 91.88, 180.71 47.11 M2 258.79 C62.66 190.02, 122.92 119.18, 181.1 52.75 M2 258.79 C73.59 178.75, 143.73 98.61, 181.1 52.75 M2.39 264.43 C56.41 198.54, 114.6 135.3, 180.84 59.15 M2.39 264.43 C68.83 186.98, 133.65 111.44, 180.84 59.15 M2.13 270.83 C52.55 211.72, 106.85 151.1, 181.23 64.79 M2.13 270.83 C71.7 190.43, 140.38 112.05, 181.23 64.79 M1.87 277.23 C71.84 195.75, 143.73 114.39, 180.97 71.19 M1.87 277.23 C53.58 216.02, 106.89 154.2, 180.97 71.19 M2.26 282.87 C44.2 237.79, 84.45 191.76, 180.71 77.59 M2.26 282.87 C67.55 207.22, 133.7 130.93, 180.71 77.59 M2 289.27 C57.14 222.88, 114.73 160.57, 181.1 83.23 M2 289.27 C43.22 239.76, 86.95 190.04, 181.1 83.23 M2.4 294.91 C52.23 235.99, 103.88 177.2, 180.84 89.63 M2.4 294.91 C66.72 220.43, 131.32 147.25, 180.84 89.63 M2.79 300.55 C51.45 240.85, 102.76 183.65, 181.24 95.27 M2.79 300.55 C67.62 226.9, 132.17 153.33, 181.24 95.27 M2.53 306.95 C62.44 233.7, 127.24 162.13, 180.98 101.67 M2.53 306.95 C52.14 250.82, 99.62 196.06, 180.98 101.67 M4.24 311.08 C43.35 263.96, 84.84 218, 180.72 108.07 M4.24 311.08 C58.31 245.59, 114.38 181.05, 180.72 108.07 M6.6 314.46 C71.66 238.02, 138.04 161.97, 181.11 113.71 M6.6 314.46 C60.85 251.97, 114.81 189.45, 181.11 113.71 M9.62 317.09 C70.46 248.47, 133.06 176.77, 180.85 120.11 M9.62 317.09 C54.47 265.16, 100.88 211.7, 180.85 120.11 M12.64 319.71 C50.3 275.55, 91.62 227.89, 181.24 125.75 M12.64 319.71 C78.69 243.72, 144.69 167.68, 181.24 125.75 M15 323.09 C80.23 251.49, 143 176.29, 180.98 132.15 M15 323.09 C62.17 269.75, 108.65 216.8, 180.98 132.15 M19.33 324.21 C63.58 269.24, 110.26 216.48, 180.72 138.55 M19.33 324.21 C71.22 263.74, 124.71 203.32, 180.72 138.55 M23.66 325.32 C73.19 268.8, 125.32 208.27, 181.11 144.19 M23.66 325.32 C72.89 270.84, 122.19 214.47, 181.11 144.19 M27.34 327.19 C84.87 258.05, 146.5 191.39, 180.85 150.59 M27.34 327.19 C62.08 289.17, 95.36 251.92, 180.85 150.59 M32.98 326.8 C74.46 278.87, 116.33 230.54, 181.25 156.23 M32.98 326.8 C66.79 288.9, 99.12 250.7, 181.25 156.23 M37.97 327.16 C83.01 276.02, 130.38 224.18, 180.99 162.63 M37.97 327.16 C77.28 279.34, 118.35 232.37, 180.99 162.63 M43.61 326.76 C82.77 279.66, 119.71 235.85, 180.72 169.03 M43.61 326.76 C95.63 269.4, 147.14 210.52, 180.72 169.03 M48.6 327.12 C91.9 276.8, 134.47 226.73, 181.12 174.67 M48.6 327.12 C79.75 291.32, 109.84 256.66, 181.12 174.67 M53.58 327.48 C82.1 292.07, 112.74 253.01, 180.86 181.07 M53.58 327.48 C82.55 292.39, 112.31 260.97, 180.86 181.07 M59.23 327.09 C104.07 271.49, 152.37 221.45, 181.25 186.71 M59.23 327.09 C93.94 287.81, 128.59 246.88, 181.25 186.71 M64.21 327.45 C104.71 278.55, 151.46 229.13, 180.99 193.11 M64.21 327.45 C104.24 282.86, 144.71 236.23, 180.99 193.11 M69.86 327.05 C110.84 281.47, 147.96 236.44, 180.73 199.51 M69.86 327.05 C105.86 283.68, 143.41 241.09, 180.73 199.51 M74.84 327.41 C114.69 283, 157.17 236.14, 181.12 205.15 M74.84 327.41 C115.85 279.69, 156.99 234.36, 181.12 205.15 M80.49 327.02 C122.72 281.6, 160.49 234.7, 180.86 211.55 M80.49 327.02 C100.48 304.63, 119.89 281.19, 180.86 211.55 M85.47 327.38 C111.67 296.78, 139.54 266.59, 181.26 217.19 M85.47 327.38 C115.08 293.42, 145 259.93, 181.26 217.19 M91.12 326.98 C125.93 286.48, 158.29 246.98, 181 223.59 M91.12 326.98 C126.95 285.85, 162.19 245.62, 181 223.59 M96.1 327.34 C129.97 289.27, 163.71 250.56, 180.73 229.99 M96.1 327.34 C127.51 290.97, 159.47 254.87, 180.73 229.99 M101.09 327.7 C122.8 303.74, 143.89 276.81, 181.13 235.63 M101.09 327.7 C126.99 298, 154.64 266.97, 181.13 235.63 M106.73 327.31 C133.62 299.29, 155.76 270.06, 180.87 242.03 M106.73 327.31 C132.48 298.04, 159.28 266.64, 180.87 242.03 M111.72 327.67 C135.87 301.36, 157.71 271.18, 181.26 247.67 M111.72 327.67 C132.92 302.81, 154.3 275.88, 181.26 247.67 M117.36 327.27 C131.6 312.22, 142.28 294.96, 181 254.07 M117.36 327.27 C136.13 305.73, 154.68 283.24, 181 254.07 M122.35 327.63 C142.76 305.52, 163.13 281.37, 180.74 260.47 M122.35 327.63 C142.36 303.54, 163.37 279.11, 180.74 260.47 M127.99 327.24 C140.14 312.46, 153.85 297.34, 181.13 266.11 M127.99 327.24 C147.54 304.84, 167.82 282.93, 181.13 266.11 M132.98 327.6 C148.34 310.47, 163.72 290.1, 180.87 272.51 M132.98 327.6 C150.88 306.47, 169.16 286.09, 180.87 272.51 M138.62 327.21 C153.33 312.35, 165.06 294.29, 181.27 278.15 M138.62 327.21 C149.26 316.5, 158.26 304.65, 181.27 278.15 M143.61 327.57 C155.31 313.77, 165.69 303.63, 181.01 284.55 M143.61 327.57 C157.81 311.65, 171.62 294.1, 181.01 284.55 M149.25 327.17 C156.5 316.79, 165.4 307.89, 178.78 293.21 M149.25 327.17 C157.41 318.89, 163.2 310.84, 178.78 293.21 M154.9 326.78 C160.59 321.86, 164.92 313.14, 177.86 300.36 M154.9 326.78 C161.88 319.57, 168.04 313.48, 177.86 300.36 M161.85 324.87 C164.27 321.21, 168.54 317.54, 174.32 310.53 M161.85 324.87 C165.08 321.5, 168.92 317.05, 174.32 310.53" stroke="#ffd8a8" stroke-width="0.5" fill="none"></path><path d="M32 0 M32 0 C55.47 -2.29, 80.8 -1.11, 146 0 M32 0 C63.03 0.31, 91.71 0.29, 146 0 M146 0 C166.38 -0.64, 179.75 10.6, 178 32 M146 0 C167.53 1.82, 180.03 9.87, 178 32 M178 32 C176.68 110.99, 178.85 189.48, 178 293 M178 32 C176.67 92.46, 176.02 152.99, 178 293 M178 293 C179.59 313.31, 168.11 324.92, 146 325 M178 293 C176.08 314.44, 168.56 326.31, 146 325 M146 325 C100.55 325.32, 55.54 323.37, 32 325 M146 325 C121.75 325.34, 97.89 324.45, 32 325 M32 325 C10.48 323.94, -1.8 314.8, 0 293 M32 325 C9.21 325.31, -0.47 312.74, 0 293 M0 293 C-0.17 202.07, 1.6 108.49, 0 32 M0 293 C-1.38 240.52, -1.87 188.18, 0 32 M0 32 C1.47 12.49, 8.81 1.78, 32 0 M0 32 C2.14 10.6, 8.57 -0.95, 32 0" stroke="#1e1e1e" stroke-width="1" fill="none"></path></g><g transform="translate(546.1500625610352 123) rotate(0 81.84993743896484 50)"><text x="81.84993743896484" y="0" font-family="Virgil, Segoe UI Emoji" font-size="20px" fill="#1e1e1e" text-anchor="middle" style="white-space: pre;" direction="ltr" dominant-baseline="text-before-edge">Data Lakehouse</text><text x="81.84993743896484" y="25" font-family="Virgil, Segoe UI Emoji" font-size="20px" fill="#1e1e1e" text-anchor="middle" style="white-space: pre;" direction="ltr" dominant-baseline="text-before-edge">or Data </text><text x="81.84993743896484" y="50" font-family="Virgil, Segoe UI Emoji" font-size="20px" fill="#1e1e1e" text-anchor="middle" style="white-space: pre;" direction="ltr" dominant-baseline="text-before-edge">Warehouse or </text><text x="81.84993743896484" y="75" font-family="Virgil, Segoe UI Emoji" font-size="20px" fill="#1e1e1e" text-anchor="middle" style="white-space: pre;" direction="ltr" dominant-baseline="text-before-edge">Similar</text></g><g stroke-linecap="round" transform="translate(781 99) rotate(0 84 69.5)"><path d="M7.86 8.16 C7.86 8.16, 7.86 8.16, 7.86 8.16 M7.86 8.16 C7.86 8.16, 7.86 8.16, 7.86 8.16 M3.66 19.09 C8.09 15.61, 12.33 10.46, 18.1 2.48 M3.66 19.09 C8.11 13.78, 11.96 10.74, 18.1 2.48 M2.75 26.24 C11.34 14.61, 18.83 5.32, 24.4 1.33 M2.75 26.24 C7.02 20.3, 11.71 14.84, 24.4 1.33 M2.48 32.64 C11.63 20.12, 24.63 6.29, 30.7 0.18 M2.48 32.64 C9.76 23.79, 18.17 14.54, 30.7 0.18 M2.88 38.28 C13.22 24.04, 24.49 12.55, 34.37 2.05 M2.88 38.28 C9.65 30.36, 17.79 20.61, 34.37 2.05 M2.62 44.68 C16.07 32.01, 27.83 18.16, 39.36 2.41 M2.62 44.68 C9.39 36.32, 18.11 26.88, 39.36 2.41 M2.36 51.07 C20.62 30.11, 33.44 12.05, 45 2.02 M2.36 51.07 C11.79 40.79, 21.37 29.93, 45 2.02 M2.75 56.72 C18.55 40.86, 35.12 22.22, 49.99 2.38 M2.75 56.72 C12.9 44.81, 23.08 34.78, 49.99 2.38 M2.49 63.11 C16.24 44.86, 30.48 27.1, 55.63 1.98 M2.49 63.11 C13.84 50.35, 24.97 37.51, 55.63 1.98 M2.88 68.76 C25.57 44.28, 47.45 17.73, 60.62 2.34 M2.88 68.76 C23.15 46.33, 43.93 22.51, 60.62 2.34 M2.62 75.16 C24.57 50.27, 47.01 22.38, 66.26 1.95 M2.62 75.16 C21.41 52, 39.91 31.52, 66.26 1.95 M2.36 81.55 C26.22 55.91, 48.81 28.62, 71.25 2.31 M2.36 81.55 C29.64 49.83, 57.11 19.77, 71.25 2.31 M2.76 87.2 C19.74 68.1, 37.05 47.26, 76.89 1.91 M2.76 87.2 C25.34 60.5, 47.1 36.22, 76.89 1.91 M2.49 93.59 C28.34 60.99, 55.13 30.72, 81.88 2.27 M2.49 93.59 C35.19 57.67, 67.39 20.77, 81.88 2.27 M2.89 99.24 C33.94 59.29, 68.43 21.49, 87.52 1.88 M2.89 99.24 C32.86 66.16, 63.45 31.16, 87.52 1.88 M2.63 105.64 C26.63 78.43, 53.7 47.86, 92.51 2.24 M2.63 105.64 C33.38 70.67, 64.77 36.53, 92.51 2.24 M2.37 112.03 C28.63 81.23, 55.32 48.73, 98.15 1.85 M2.37 112.03 C25.73 84.01, 48.79 57.76, 98.15 1.85 M3.42 116.92 C32.55 84.75, 60.47 50.09, 103.14 2.21 M3.42 116.92 C31.44 87.15, 57.02 56.21, 103.14 2.21 M5.12 121.06 C47.34 73.93, 87.87 27.8, 108.78 1.81 M5.12 121.06 C35.57 85.17, 66.6 49.17, 108.78 1.81 M4.86 127.45 C31.72 97.11, 59.29 66.22, 113.77 2.17 M4.86 127.45 C43.75 84.16, 82.85 39.86, 113.77 2.17 M7.88 130.08 C46.3 87.04, 84.53 43.68, 119.41 1.78 M7.88 130.08 C46.07 87.11, 83.33 42.47, 119.41 1.78 M10.24 133.46 C44.78 91.7, 82.22 50.6, 124.4 2.14 M10.24 133.46 C39.59 98.82, 69.88 63.68, 124.4 2.14 M13.92 135.33 C39.28 105.29, 66.68 76.17, 130.04 1.74 M13.92 135.33 C45.09 99.07, 75.69 63.8, 130.04 1.74 M17.59 137.2 C55.38 93.58, 93.82 45.45, 136.34 0.59 M17.59 137.2 C62.04 87.24, 105.18 37.58, 136.34 0.59 M20.61 139.82 C53.71 103.96, 86.78 63.64, 141.33 0.95 M20.61 139.82 C55.72 98.62, 90.6 59.1, 141.33 0.95 M25.6 140.18 C60.63 99.75, 96.16 63.74, 145.66 2.07 M25.6 140.18 C63.47 96.06, 99.98 55.29, 145.66 2.07 M30.59 140.54 C78.11 86.26, 125.3 30.99, 150.65 2.43 M30.59 140.54 C70.3 92.57, 111.77 45.47, 150.65 2.43 M34.92 141.65 C59.12 108.82, 86.5 80.26, 154.32 4.3 M34.92 141.65 C66.42 105.59, 96.96 68, 154.32 4.3 M40.56 141.26 C83.94 90.61, 130.16 35.58, 157.34 6.92 M40.56 141.26 C69.27 109.32, 94.67 79.51, 157.34 6.92 M45.55 141.62 C78.26 102.68, 114.06 60.25, 161.01 8.79 M45.55 141.62 C80.34 100.56, 115.38 59.55, 161.01 8.79 M51.19 141.23 C94.68 94.37, 133.84 47.64, 163.38 12.17 M51.19 141.23 C79.67 108.05, 110.56 74.53, 163.38 12.17 M56.18 141.59 C99.09 92.67, 141.52 44.03, 165.08 16.3 M56.18 141.59 C98.44 94.11, 140.01 44.28, 165.08 16.3 M61.16 141.95 C99.88 98.95, 134.25 56.05, 167.45 19.68 M61.16 141.95 C88.15 110.83, 114.65 79.3, 167.45 19.68 M66.81 141.55 C92.48 111.74, 118.53 81.4, 168.5 24.57 M66.81 141.55 C104.64 97.82, 140.98 53.69, 168.5 24.57 M71.79 141.91 C96.1 112.19, 121.65 84.32, 168.89 30.21 M71.79 141.91 C103.55 104.85, 133.65 67.46, 168.89 30.21 M77.44 141.52 C108.95 104.4, 142.9 66.34, 170.6 34.35 M77.44 141.52 C98.72 116.92, 119.1 92.2, 170.6 34.35 M82.42 141.88 C109.03 115.02, 130.9 84.87, 170.34 40.75 M82.42 141.88 C108.2 112.56, 132.81 83.18, 170.34 40.75 M88.07 141.48 C106.49 119.31, 124.66 97.92, 170.73 46.39 M88.07 141.48 C106.46 119.58, 124.38 99.87, 170.73 46.39 M93.05 141.84 C119.59 110.39, 143.09 82.14, 170.47 52.79 M93.05 141.84 C114.02 119.61, 132.23 98.16, 170.47 52.79 M98.7 141.45 C125.37 110.58, 151.15 81.14, 170.21 59.18 M98.7 141.45 C120.11 114.32, 143.3 89.98, 170.21 59.18 M103.68 141.81 C118.77 123.5, 134.84 105.71, 170.6 64.83 M103.68 141.81 C119.27 124.74, 133.92 105.21, 170.6 64.83 M109.33 141.41 C128.28 120.42, 145.6 98.87, 170.34 71.22 M109.33 141.41 C131.17 115.15, 152.73 90.79, 170.34 71.22 M114.32 141.77 C130.83 121.4, 147.61 106.06, 170.08 77.62 M114.32 141.77 C133.61 118.97, 151.69 96.36, 170.08 77.62 M119.96 141.38 C135.03 121.22, 153.71 102.76, 170.47 83.27 M119.96 141.38 C137.67 120.75, 154.41 101.41, 170.47 83.27 M124.95 141.74 C137.42 126.2, 152.85 109.5, 170.21 89.66 M124.95 141.74 C133.73 131.23, 143.39 120.57, 170.21 89.66 M130.59 141.34 C147.19 126.02, 159.93 107.58, 169.95 96.06 M130.59 141.34 C143.76 127.41, 155.68 112.25, 169.95 96.06 M136.89 140.19 C142.44 129.85, 150.98 123.86, 170.35 101.7 M136.89 140.19 C148.13 127.58, 159.3 114.33, 170.35 101.7 M143.19 139.05 C153.5 127.26, 162.68 116.9, 170.08 108.1 M143.19 139.05 C150.29 132.78, 155.1 125.32, 170.08 108.1 M150.14 137.14 C152.6 134.68, 156.28 126.56, 168.51 116.01 M150.14 137.14 C156.45 130.46, 161.39 122.48, 168.51 116.01" stroke="#d0bfff" stroke-width="0.5" fill="none"></path><path d="M32 0 M32 0 C67.48 1.08, 103.43 1.84, 136 0 M32 0 C72.32 -1.65, 110.26 -0.88, 136 0 M136 0 C159.3 -0.07, 168.83 9.61, 168 32 M136 0 C156.57 -1.26, 170.03 10.81, 168 32 M168 32 C166.59 56.5, 166.7 77.95, 168 107 M168 32 C168.69 47.05, 167.89 63.23, 168 107 M168 107 C167.13 129.87, 156.88 137.61, 136 139 M168 107 C167.46 129.37, 159.6 139.11, 136 139 M136 139 C94.92 138.51, 56.55 141.05, 32 139 M136 139 C95.31 138.8, 52.68 138.39, 32 139 M32 139 C8.7 140.52, -0.52 129.58, 0 107 M32 139 C12.15 138.52, 1.12 127.87, 0 107 M0 107 C0.08 85.27, 0.72 62.83, 0 32 M0 107 C-0.34 85.67, -0.14 63.34, 0 32 M0 32 C1 10.91, 11.24 -0.41, 32 0 M0 32 C-2.09 10.74, 12.91 0.12, 32 0" stroke="#1e1e1e" stroke-width="1" fill="none"></path></g><g transform="translate(796.6700439453125 131) rotate(0 68.3299560546875 37.5)"><text x="68.3299560546875" y="0" font-family="Virgil, Segoe UI Emoji" font-size="20px" fill="#1e1e1e" text-anchor="middle" style="white-space: pre;" direction="ltr" dominant-baseline="text-before-edge">BI Tool or </text><text x="68.3299560546875" y="25" font-family="Virgil, Segoe UI Emoji" font-size="20px" fill="#1e1e1e" text-anchor="middle" style="white-space: pre;" direction="ltr" dominant-baseline="text-before-edge">Excel or Web </text><text x="68.3299560546875" y="50" font-family="Virgil, Segoe UI Emoji" font-size="20px" fill="#1e1e1e" text-anchor="middle" style="white-space: pre;" direction="ltr" dominant-baseline="text-before-edge">UI or similar</text></g><g transform="translate(1058.9675754458783 197.67198689791758) rotate(0 22.339981079101562 12.5)"><text x="0" y="0" font-family="Virgil, Segoe UI Emoji" font-size="20px" fill="#000000" text-anchor="start" style="white-space: pre;" direction="ltr" dominant-baseline="text-before-edge">User</text></g><g stroke-linecap="round"><g transform="translate(1056.180354797371 188.01906088793885) rotate(0 25.819645202628976 -21.795699329337083)" fill-rule="evenodd"><path d="M13.47 -38.64 C13.47 -38.64, 13.47 -38.64, 13.47 -38.64 M13.47 -38.64 C13.47 -38.64, 13.47 -38.64, 13.47 -38.64 M7.04 -19.05 C13.58 -26.57, 20.11 -34.09, 26.72 -41.69 M7.04 -19.05 C11.7 -24.42, 16.37 -29.78, 26.72 -41.69 M0.61 0.53 C12.78 -13.46, 24.94 -27.45, 35.39 -39.47 M0.61 0.53 C8.93 -9.03, 17.24 -18.59, 35.39 -39.47 M11.24 0.5 C21.48 -11.27, 31.71 -23.05, 40.77 -33.46 M11.24 0.5 C18.44 -7.78, 25.64 -16.06, 40.77 -33.46 M21.87 0.47 C28.3 -6.92, 34.72 -14.31, 46.81 -28.21 M21.87 0.47 C27.96 -6.54, 34.05 -13.54, 46.81 -28.21 M29.22 4.2 C35.97 -3.55, 42.71 -11.31, 50.87 -20.7 M29.22 4.2 C34.42 -1.77, 39.61 -7.74, 50.87 -20.7 M41.82 1.91 C44.85 -1.58, 47.87 -5.06, 54.94 -13.19 M41.82 1.91 C44.92 -1.66, 48.02 -5.23, 54.94 -13.19 M0 0 C0 0, 0 0, 0 0 M0 0 C0 0, 0 0, 0 0 M12.04 -0.13 C9.68 -2.18, 7.32 -4.23, 1.47 -9.32 M12.04 -0.13 C9.02 -2.76, 6 -5.38, 1.47 -9.32 M24.84 0.39 C20.23 -3.61, 15.62 -7.62, 2.95 -18.64 M24.84 0.39 C16.49 -6.86, 8.15 -14.11, 2.95 -18.64 M30.08 -5.65 C23.29 -11.55, 16.5 -17.45, 6.69 -25.99 M30.08 -5.65 C21.6 -13.02, 13.12 -20.4, 6.69 -25.99 M45.9 -2.5 C36.7 -10.5, 27.5 -18.49, 9.67 -33.99 M45.9 -2.5 C36.23 -10.91, 26.56 -19.31, 9.67 -33.99 M52.66 -7.23 C38.08 -19.9, 23.5 -32.57, 14.92 -40.03 M52.66 -7.23 C39.93 -18.29, 27.19 -29.36, 14.92 -40.03 M51.11 -19.17 C43.07 -26.16, 35.03 -33.15, 20.92 -45.41 M51.11 -19.17 C44.37 -25.03, 37.63 -30.89, 20.92 -45.41" stroke="#ced4da" stroke-width="1" fill="none"></path><path d="M0 0 C0.92 -4.85, 1.58 -21.76, 5.52 -29.07 C9.46 -36.38, 17.61 -43.34, 23.65 -43.87 C29.69 -44.4, 37.51 -39.05, 41.78 -32.24 C46.05 -25.43, 56.23 -8.39, 49.27 -3.02 C42.31 2.36, 8.21 -0.5, 0 0 M0 0 C0.92 -4.85, 1.58 -21.76, 5.52 -29.07 C9.46 -36.38, 17.61 -43.34, 23.65 -43.87 C29.69 -44.4, 37.51 -39.05, 41.78 -32.24 C46.05 -25.43, 56.23 -8.39, 49.27 -3.02 C42.31 2.36, 8.21 -0.5, 0 0" stroke="#000000" stroke-width="2" fill="none"></path></g></g><mask></mask><g stroke-linecap="round" transform="translate(1068.6342256336866 121.32801310208242) rotate(0 12.612971703843186 11.036350240862816)"><path d="M2.98 3.91 C2.98 3.91, 2.98 3.91, 2.98 3.91 M2.98 3.91 C2.98 3.91, 2.98 3.91, 2.98 3.91 M2.45 16.71 C7.84 10.52, 13.22 4.32, 16.23 0.86 M2.45 16.71 C5.55 13.15, 8.64 9.59, 16.23 0.86 M8.49 21.96 C12.87 16.92, 17.25 11.88, 23.58 4.6 M8.49 21.96 C12.69 17.13, 16.88 12.3, 23.58 4.6 M4.36 19.37 C4.36 19.37, 4.36 19.37, 4.36 19.37 M4.36 19.37 C4.36 19.37, 4.36 19.37, 4.36 19.37 M17.91 20.55 C13.33 16.56, 8.75 12.58, 1.31 6.11 M17.91 20.55 C12.83 16.12, 7.74 11.7, 1.31 6.11 M24.67 15.82 C19.23 11.09, 13.79 6.36, 7.31 0.73 M24.67 15.82 C19.7 11.5, 14.74 7.18, 7.31 0.73" stroke="#ced4da" stroke-width="1" fill="none"></path><path d="M25.23 11.04 C25.23 11.68, 25.16 12.32, 25.03 12.95 C24.91 13.58, 24.71 14.21, 24.47 14.81 C24.22 15.41, 23.9 16, 23.54 16.55 C23.17 17.11, 22.74 17.64, 22.28 18.13 C21.81 18.62, 21.28 19.08, 20.72 19.49 C20.16 19.9, 19.55 20.27, 18.92 20.59 C18.29 20.91, 17.61 21.19, 16.93 21.41 C16.24 21.63, 15.52 21.79, 14.8 21.91 C14.08 22.02, 13.34 22.07, 12.61 22.07 C11.88 22.07, 11.14 22.02, 10.42 21.91 C9.7 21.79, 8.99 21.63, 8.3 21.41 C7.61 21.19, 6.94 20.91, 6.31 20.59 C5.67 20.27, 5.06 19.9, 4.51 19.49 C3.95 19.08, 3.42 18.62, 2.95 18.13 C2.48 17.64, 2.05 17.11, 1.69 16.55 C1.32 16, 1.01 15.41, 0.76 14.81 C0.51 14.21, 0.32 13.58, 0.19 12.95 C0.06 12.32, 0 11.68, 0 11.04 C0 10.4, 0.06 9.75, 0.19 9.12 C0.32 8.49, 0.51 7.86, 0.76 7.26 C1.01 6.66, 1.32 6.07, 1.69 5.52 C2.05 4.96, 2.48 4.43, 2.95 3.94 C3.42 3.45, 3.95 2.99, 4.51 2.58 C5.06 2.17, 5.67 1.8, 6.31 1.48 C6.94 1.16, 7.61 0.88, 8.3 0.67 C8.99 0.45, 9.7 0.28, 10.42 0.17 C11.14 0.06, 11.88 0, 12.61 0 C13.34 0, 14.08 0.06, 14.8 0.17 C15.52 0.28, 16.24 0.45, 16.93 0.67 C17.61 0.88, 18.29 1.16, 18.92 1.48 C19.55 1.8, 20.16 2.17, 20.72 2.58 C21.28 2.99, 21.81 3.45, 22.28 3.94 C22.74 4.43, 23.17 4.96, 23.54 5.52 C23.9 6.07, 24.22 6.66, 24.47 7.26 C24.71 7.86, 24.91 8.49, 25.03 9.12 C25.16 9.75, 25.19 10.72, 25.23 11.04 C25.26 11.36, 25.26 10.72, 25.23 11.04" stroke="#000000" stroke-width="2" fill="none"></path></g><g stroke-linecap="round"><g transform="translate(221 163) rotate(0 25.149139642203238 -0.22704384326937088)"><path d="M0.14 0.62 C8.17 0.43, 40.81 -0.8, 49.24 -1.08 M-1.25 -0.1 C7.07 -0.18, 42.96 -0.08, 51.55 -0.1" stroke="#1e1e1e" stroke-width="1" fill="none"></path></g><g transform="translate(221 163) rotate(0 25.149139642203238 -0.22704384326937088)"><path d="M29.09 7.17 C35.38 6.25, 44.6 1.04, 49.71 0.56 M27.7 8.5 C35.43 6.48, 43.49 2.16, 51.32 0.34" stroke="#1e1e1e" stroke-width="1" fill="none"></path></g><g transform="translate(221 163) rotate(0 25.149139642203238 -0.22704384326937088)"><path d="M29.1 -9.93 C35.39 -4.21, 44.61 -2.79, 49.71 0.56 M27.7 -8.6 C35.51 -4.91, 43.56 -3.52, 51.32 0.34" stroke="#1e1e1e" stroke-width="1" fill="none"></path></g></g><mask></mask><g stroke-linecap="round"><g transform="translate(478 169) rotate(0 27.12164947986605 0.4921117671905222)"><path d="M-0.64 -0.1 C8.4 0.4, 45.88 2.07, 54.88 2.19 M1.22 -1.2 C10.12 -0.92, 45.89 0.2, 54.4 0.69" stroke="#1e1e1e" stroke-width="1" fill="none"></path></g><g transform="translate(478 169) rotate(0 27.12164947986605 0.4921117671905222)"><path d="M28.49 10.33 C39.85 5.08, 46.34 4.79, 54.71 0.02 M28.4 9.47 C36.43 6.21, 43.32 3.98, 54.35 -0.08" stroke="#1e1e1e" stroke-width="1" fill="none"></path></g><g transform="translate(478 169) rotate(0 27.12164947986605 0.4921117671905222)"><path d="M29.26 -8.13 C40.21 -6.82, 46.43 -0.55, 54.71 0.02 M29.17 -8.98 C36.81 -7.18, 43.49 -4.36, 54.35 -0.08" stroke="#1e1e1e" stroke-width="1" fill="none"></path></g></g><mask></mask><g stroke-linecap="round"><g transform="translate(720 172) rotate(0 26.39571464061737 0.5414172410964966)"><path d="M-0.25 -1.09 C8.57 -0.79, 44.15 1.84, 53.04 2.17 M1.82 0.95 C10.47 0.92, 43.69 0.45, 52.11 0.67" stroke="#1e1e1e" stroke-width="1" fill="none"></path></g><g transform="translate(720 172) rotate(0 26.39571464061737 0.5414172410964966)"><path d="M25.36 9.72 C36.9 7.01, 42.62 4.37, 51.99 -0.07 M26.69 10.18 C36.54 6.85, 45.88 3.42, 51.61 0.79" stroke="#1e1e1e" stroke-width="1" fill="none"></path></g><g transform="translate(720 172) rotate(0 26.39571464061737 0.5414172410964966)"><path d="M25.41 -8.41 C36.98 -5.46, 42.69 -2.43, 51.99 -0.07 M26.74 -7.96 C36.74 -4.33, 46.06 -0.82, 51.61 0.79" stroke="#1e1e1e" stroke-width="1" fill="none"></path></g></g><mask></mask><g stroke-linecap="round"><g transform="translate(959 170) rotate(0 43.91137194019268 -1.019690166050566)"><path d="M0.37 -0.78 C15.11 -1.15, 73.95 -1.48, 88.72 -1.91 M-0.9 1.42 C13.64 0.72, 72.77 -2.86, 87.63 -3.46" stroke="#1e1e1e" stroke-width="1" fill="none"></path></g><g transform="translate(959 170) rotate(0 43.91137194019268 -1.019690166050566)"><path d="M58.7 7.78 C70.69 4.41, 77.21 -0.39, 88.68 -3.96 M60.02 7.77 C68.83 5.07, 77.08 1.42, 88.19 -3.89" stroke="#1e1e1e" stroke-width="1" fill="none"></path></g><g transform="translate(959 170) rotate(0 43.91137194019268 -1.019690166050566)"><path d="M57.63 -12.71 C70.02 -9.49, 76.87 -7.69, 88.68 -3.96 M58.96 -12.72 C67.96 -9.24, 76.53 -6.69, 88.19 -3.89" stroke="#1e1e1e" stroke-width="1" fill="none"></path></g></g><mask></mask></svg>